<?xml version="1.0" encoding="UTF-8"?>
<svg id="Layer_1" data-name="Layer 1" xmlns="http://www.w3.org/2000/svg" xmlns:xlink="http://www.w3.org/1999/xlink" viewBox="0 0 1024 1024">
  <defs>
    <style>
      .cls-1 {
        fill: url(#linear-gradient);
      }

      .cls-1, .cls-2 {
        stroke-width: 0px;
      }

      .cls-2 {
        fill: url(#linear-gradient-2);
      }
    </style>
    <linearGradient id="linear-gradient" x1="142.74" y1="532.3" x2="865.68" y2="532.3" gradientUnits="userSpaceOnUse">
      <stop offset="0" stop-color="#13b497"/>
      <stop offset=".17" stop-color="#39b48c"/>
      <stop offset=".55" stop-color="#9bb670"/>
      <stop offset=".78" stop-color="#d9b75f"/>
      <stop offset="1" stop-color="#d9b75f"/>
    </linearGradient>
    <linearGradient id="linear-gradient-2" x1="293.87" y1="399.02" x2="504.46" y2="399.02" gradientUnits="userSpaceOnUse">
      <stop offset="0" stop-color="#fff"/>
      <stop offset="1" stop-color="#ccc"/>
    </linearGradient>
  </defs>
  <path class="cls-1" d="M807.22,185.03c-25.71-19.29-47.5-32.2-79.74-32.36-6.77-.03-13.53.68-20.18,1.92l-377.37,70.18c-71.42,13.28-124.71,69.82-132.6,140.71l-54.29,497.48c-4.87,44.65,52.36,67.11,79.16,31.07l156.73-210.78,231.2,10.48c60.75-1.81,114.88-38.63,137.9-93.79l102.45-226.64c17.13-37.9,20.23-80.98,7.07-120.43-10.85-32.53-28.95-51.82-50.32-67.84ZM731.26,248.73l-110.87,271.02c-13.44,32.86-44.97,54.73-80.46,55.8l-230.09,6.97-113.63,183.56,44.43-407.29c4.76-43.64,37.48-79.04,80.61-87.22l371.17-70.39c27.22-5.16,49.33,21.9,38.84,47.55Z"/>
  <path class="cls-2" d="M293.87,483.6l25.21-122.35c2.59-12.57,15.32-22.78,31.38-25.26l138.55-21.36c10.18-1.57,18.42,6.03,14.44,13.38l-43.1,79.75c-5.36,9.93-17.65,16.6-31.31,16.97l-88.05,2.43-47.12,56.43Z"/>
</svg>