<?xml version="1.0" encoding="UTF-8"?>
<svg id="Layer_2" data-name="Layer 2" xmlns="http://www.w3.org/2000/svg" viewBox="0 0 965.46 232.67">
  <defs>
    <style>
      .cls-1 {
        fill: #161615;
      }

      .cls-2 {
        fill: #13b497;
      }
    </style>
  </defs>
  <g id="Layer_1-2" data-name="Layer 1">
    <path class="cls-1" d="M274.99,223.7V25.01h46.95c31.08,0,47.51,17.33,47.51,50.12v25.31c0,32.79-16.43,50.12-47.51,50.12h-12.43v73.15h-34.52ZM321.95,118.74c7.79,0,12.98-2.78,12.98-16.36v-29.2c0-13.58-5.19-16.36-12.98-16.36h-12.43v61.92h12.43Z"/>
    <path class="cls-1" d="M367.45,75.13v25.31c0,31.15-14.98,48.12-45.51,48.12h-14.43v73.15h-30.52V27.01h44.95c30.52,0,45.51,16.97,45.51,48.12ZM307.52,54.82v65.92h14.43c9.71,0,14.98-4.45,14.98-18.36v-29.2c0-13.91-5.27-18.36-14.98-18.36h-14.43Z"/>
    <polygon class="cls-1" points="374.05 223.7 374.05 25.01 461.29 25.01 461.29 56.82 408.57 56.82 408.57 107.06 450.47 107.06 450.47 138.87 408.57 138.87 408.57 191.89 461.29 191.89 461.29 223.7 374.05 223.7"/>
    <path class="cls-1" d="M406.57,109.06h41.9v27.81h-41.9v57.02h52.72v27.81h-83.24V27.01h83.24v27.81h-52.72v54.24Z"/>
    <polygon class="cls-1" points="469.22 223.7 469.22 25.01 556.47 25.01 556.47 56.82 503.74 56.82 503.74 107.06 545.65 107.06 545.65 138.87 503.74 138.87 503.74 191.89 556.47 191.89 556.47 223.7 469.22 223.7"/>
    <path class="cls-1" d="M501.74,109.06h41.9v27.81h-41.9v57.02h52.72v27.81h-83.24V27.01h83.24v27.81h-52.72v54.24Z"/>
    <path class="cls-1" d="M628.77,223.7l-.54-1.63c-1.68-5.05-2.79-8.39-2.79-24.29v-30.59c0-16.59-4.87-22.75-17.98-22.75h-8.54v79.27h-34.52V25.01h48.06c32.22,0,47.23,14.86,47.23,46.78v15.3c0,19.27-5.76,32.21-17.59,39.41,12.17,6.83,17.87,20.15,17.87,41.53v30.04c0,8.99.23,15.89,3.17,22.86l1.17,2.78h-35.54ZM608.85,112.62c11.59,0,16.31-5.38,16.31-18.58v-19.19c0-12.8-3.92-18.03-13.54-18.03h-12.71v55.8h9.93Z"/>
    <path class="cls-1" d="M630.22,221.7c-1.67-5.01-2.77-8.07-2.77-23.92v-30.59c0-18.08-6.1-24.75-19.98-24.75h-10.54v79.27h-30.52V27.01h46.06c31.63,0,45.23,14.74,45.23,44.78v15.3c0,20.03-6.38,33.1-19.98,39.5,15.26,6.4,20.26,21.14,20.26,41.44v30.04c0,9.46.28,16.41,3.33,23.64h-31.08ZM596.92,54.82v59.8h11.93c11.38,0,18.31-5.01,18.31-20.58v-19.19c0-13.91-4.72-20.03-15.54-20.03h-14.71Z"/>
    <path class="cls-2" d="M669,223.7V25.01h46.95c31.08,0,47.51,17.33,47.51,50.12v25.31c0,32.79-16.43,50.12-47.51,50.12h-12.43v73.15h-34.52ZM715.95,118.74c7.79,0,12.98-2.78,12.98-16.36v-29.2c0-13.58-5.19-16.36-12.98-16.36h-12.43v61.92h12.43Z"/>
    <path class="cls-2" d="M761.46,75.13v25.31c0,31.15-14.98,48.12-45.51,48.12h-14.43v73.15h-30.52V27.01h44.95c30.52,0,45.51,16.97,45.51,48.12ZM701.53,54.82v65.92h14.43c9.71,0,14.98-4.45,14.98-18.36v-29.2c0-13.91-5.27-18.36-14.98-18.36h-14.43Z"/>
    <path class="cls-2" d="M813.9,225.93c-30.72,0-48.34-18.57-48.34-50.95v-101.24c0-32.38,17.62-50.95,48.34-50.95s48.34,18.57,48.34,50.95v101.24c0,32.38-17.62,50.95-48.34,50.95ZM813.9,54.6c-5.93,0-13.82,1.78-13.82,17.19v105.14c0,15.41,7.88,17.19,13.82,17.19s13.82-1.78,13.82-17.19v-105.14c0-15.41-7.88-17.19-13.82-17.19Z"/>
    <path class="cls-2" d="M767.56,73.73c0-31.15,16.37-48.95,46.34-48.95s46.34,17.8,46.34,48.95v101.24c0,31.15-16.37,48.95-46.34,48.95s-46.34-17.8-46.34-48.95v-101.24ZM798.08,176.92c0,13.91,6.1,19.19,15.82,19.19s15.82-5.28,15.82-19.19v-105.14c0-13.91-6.1-19.19-15.82-19.19s-15.82,5.28-15.82,19.19v105.14Z"/>
    <path class="cls-2" d="M871,223.7V25.01h46.95c31.08,0,47.51,17.33,47.51,50.12v25.31c0,32.79-16.43,50.12-47.51,50.12h-12.43v73.15h-34.52ZM917.95,118.74c7.79,0,12.98-2.78,12.98-16.36v-29.2c0-13.58-5.19-16.36-12.98-16.36h-12.43v61.92h12.43Z"/>
    <path class="cls-2" d="M963.46,75.13v25.31c0,31.15-14.98,48.12-45.51,48.12h-14.43v73.15h-30.52V27.01h44.95c30.52,0,45.51,16.97,45.51,48.12ZM903.52,54.82v65.92h14.43c9.71,0,14.98-4.45,14.98-18.36v-29.2c0-13.91-5.27-18.36-14.98-18.36h-14.43Z"/>
    <g>
      <path class="cls-1" d="M153.92,81.59l-19.43,3.56c-10.78,1.97-18.8,11.08-19.38,22.02l-2.34,17.62-.46,8.72-1.1,20.54-.46,8.62-3.75,70-3.52-65.77-.43-7.96-1.03-19.35-.43-7.95-2.7-24.47c-.27-5.13-2.19-9.86-5.24-13.64-.04-.05-.08-.09-.11-.14-1.51-1.83-3.28-3.43-5.28-4.73l-.18-.12c-2.54-1.65-5.44-2.81-8.57-3.38l-19.43-3.56,20.68-3.78c10.2-1.86,17.99-10.13,19.25-20.42L107,0l7,57.38c.51,4.18,2.09,8.01,4.48,11.23.08.11.16.22.26.33,1.41,1.85,3.11,3.48,5.01,4.85.15.11.3.21.45.3,2.67,1.82,5.74,3.11,9.05,3.71l20.68,3.78Z"/>
      <path class="cls-1" d="M183.88,79.82c-.56,1.25-1.2,2.55-1.92,3.88l8.75-1.6c.14-.33.28-.64.41-.96l-7.24-1.33ZM88.25,88.65l-.18-.12"/>
    </g>
    <path class="cls-2" d="M94.66,161.48c-19.89,10.59-37.03,15.85-48.14,15.85-5.75,0-9.89-1.42-11.97-4.22-4.05-5.5-.57-17.19,9.32-31.27,10.06-14.32,25.59-29.81,44.07-44.04-.05-.07-.11-.14-.17-.2-1.56-1.8-3.49-3.26-5.71-4.25-18.37,14.34-33.83,29.91-44.02,44.39-3.6,5.13-6.42,9.93-8.44,14.37-4.88,10.68-5.18,19.26-.78,25.23,3.52,4.77,9.52,7.16,17.74,7.16,6.33,0,13.98-1.42,22.82-4.27,8.08-2.61,16.75-6.31,25.69-10.92l-.41-7.83ZM191.14,57.63c-3.18-4.32-8.41-6.69-15.46-7.1h-.02c-6.75-.38-15.16,1.01-25.07,4.22-8,2.59-16.6,6.24-25.47,10.79,1.59,1.79,3.58,3.23,5.83,4.19.32.14.65.27.98.39,17.05-8.34,31.65-12.48,41.51-12.48,5.75,0,9.9,1.41,11.97,4.23,2.69,3.64,2.07,9.99-1.53,17.95-.56,1.26-1.21,2.56-1.93,3.89-1.58,2.98-3.55,6.13-5.86,9.42-10.92,15.55-28.3,32.48-48.9,47.68-2.36,1.74-4.7,3.41-7.02,5.02l-.48,8.94c3.92-2.61,7.83-5.36,11.72-8.22,21.22-15.65,39.15-33.16,50.51-49.32,3.8-5.42,6.74-10.47,8.79-15.12.14-.33.27-.64.41-.96,4.15-9.88,4.19-17.87.02-23.52Z"/>
    <path class="cls-2" d="M96.12,188.84c-14.2,7.78-27.98,13.9-40.6,17.98-23.21,7.5-39.94,7.16-45.9-.92-5.97-8.09-1.34-24.17,12.68-44.12,2.24-3.19,4.68-6.42,7.3-9.67,14.57-18.14,34.81-37.13,58.17-54.51-1.56-1.8-3.49-3.26-5.71-4.25-.11-.05-.21-.1-.32-.14-27.37,20.6-50.46,43.39-65.27,64.47C.34,180.63-4.13,199.26,3.88,210.13c4.49,6.09,12.47,9.15,23.31,9.15,8.51,0,18.78-1.89,30.52-5.68,12.14-3.92,25.28-9.65,38.83-16.89l-.42-7.87ZM223.01,48.53c-8.01-10.86-27.13-12.09-53.83-3.47-13.83,4.47-28.95,11.28-44.49,19.99.14.17.29.33.43.49,1.59,1.79,3.58,3.23,5.83,4.19,14.14-7.73,27.85-13.82,40.42-17.88,1.46-.47,2.89-.91,4.29-1.32h.02c9.32-2.72,17.48-4.08,24.15-4.08,8.33,0,14.34,2.11,17.44,6.32,5.96,8.08,1.34,24.16-12.68,44.12-14.97,21.3-38.74,44.48-66.94,65.27-6.32,4.67-12.7,9.09-19.06,13.21l-.47,8.76c7.93-4.99,15.89-10.42,23.76-16.23,28.8-21.24,53.14-45,68.54-66.91,10.9-15.52,16.47-29.05,16.47-39.54,0-5.05-1.28-9.39-3.88-12.92Z"/>
  </g>
</svg>